# xmcd CD database file
# Copyright (C) 1995-1998 Ti Kan
#
# Track frame offsets:
#	182
#	11500
#	32142
#	45550
#	61482
#	81145
#	94327
#	108285
#	124050
#	134240
#	154642
#	166600
#	180332
#	199912
#	210945
#	228482
#	245680
#	269720
#	280890
#	294882
#	306677
#
# Disc length: 4272 seconds
#
# Revision: 3
# Processed by: cddbd v1.4PL0 Copyright (c) Steve Scherf et al.
# Submitted via: CDex 1.30Release
#
DISCID=2e10ae15
DTITLE=Pavel Bobek - The Best of Pavel Bobek
DYEAR=1900
DGENRE=Country
TTITLE0=Dik, ze smim par pratel mit
TTITLE1=Chvile, kdy jsem byl s ni
TTITLE2=Proc mam v koute stat
TTITLE3=200 cest, jak sbohem davat
TTITLE4=Drz se zpatky, chlapce muj
TTITLE5=Venezuela
TTITLE6=Zname se min nez chvili
TTITLE7=Tam v dalce, tam v horach
TTITLE8=One woman man
TTITLE9=Bowery street
TTITLE10=Jedem dal
TTITLE11=Slama v botach
TTITLE12=Zkus se zivotu dal smat
TTITLE13=Tatovo boogie
TTITLE14=Ja byval hodny taty syn
TTITLE15=Vzduch, ktery dycham
TTITLE16=Rokenrolu dal jsem vsechny nejlepsi sve dny
TTITLE17=Ja jsem byl bloud
TTITLE18=Krajem ja sel
TTITLE19=Sea of heartbreak
TTITLE20=Tak ja se loucim
EXTD=ID3G:   2
EXTT0=
EXTT1=
EXTT2=
EXTT3=
EXTT4=
EXTT5=
EXTT6=
EXTT7=
EXTT8=
EXTT9=
EXTT10=
EXTT11=
EXTT12=
EXTT13=
EXTT14=
EXTT15=
EXTT16=
EXTT17=
EXTT18=
EXTT19=
EXTT20=
PLAYORDER=
